<svg width="89" height="102" viewBox="0 0 89 102" fill="none" xmlns="http://www.w3.org/2000/svg">
<path d="M85.0472 78.8402L85.0499 78.8387C87.1957 77.5993 88.5 75.2646 88.5 72.7288V29.2712C88.5 26.7451 87.1636 24.4429 85.0442 23.158C85.0431 23.1573 85.0421 23.1567 85.041 23.1561L47.9698 1.43257C47.9694 1.43232 47.969 1.43207 47.9685 1.43182C45.8164 0.189388 43.1836 0.189393 41.0314 1.43184C41.031 1.43208 41.0306 1.43233 41.0301 1.43257L3.95341 23.1594L85.0472 78.8402ZM85.0472 78.8402L47.9698 100.567C47.9694 100.568 47.9689 100.568 47.9684 100.568C45.8163 101.811 43.1837 101.811 41.0316 100.568C41.0311 100.568 41.0306 100.568 41.0301 100.567L3.95905 78.8439C3.95809 78.8433 3.95713 78.8428 3.95617 78.8422C1.83654 77.5573 0.5 75.2551 0.5 72.7288V29.2712M85.0472 78.8402L0.5 29.2712M0.5 29.2712C0.5 26.7399 1.84066 24.4014 3.95286 23.1598L0.5 29.2712Z" fill="url(#paint0_linear_11484_2)" stroke="black"/>
<defs>
<linearGradient id="paint0_linear_11484_2" x1="96.6678" y1="-73.6509" x2="96.6678" y2="-175.665" gradientUnits="userSpaceOnUse">
<stop stop-color="#D4145A"/>
<stop offset="1" stop-color="#2E3192"/>
</linearGradient>
</defs>
</svg>
