<?xml version="1.0" encoding="utf-8"?><svg width="30" height="29" fill="none" xmlns="http://www.w3.org/2000/svg" viewBox="0 0 30 29"><path d="M22.326 0c.574.105 1.154.171 1.716.326 2.261.636 3.943 1.956 5.038 3.93.656 1.182.926 2.448.92 3.78-.006 4.106 0 8.212 0 12.318 0 1.796-.533 3.437-1.705 4.858-1.681 2.028-3.907 3.056-6.631 3.078-2.39.022-4.78.005-7.176.005H8.513c-2.947-.005-5.308-1.11-7.03-3.376C.47 23.587.007 22.073.007 20.437 0 16.226-.005 12.02.007 7.809.018 4.388 2.32 1.42 5.77.38 6.386.2 7.042.127 7.681 0h14.645zm-7.323 25.78c0 .006 0 .006 0 0 2.068.006 4.136.006 6.21.006.773 0 1.54-.033 2.279-.276 2.366-.774 3.83-2.719 3.842-5.145.012-4.134.006-8.268.006-12.401 0-.995-.21-1.946-.761-2.797-1.148-1.79-2.859-2.652-5.062-2.658-4.352-.006-8.705 0-13.057 0-.867 0-1.716.122-2.501.486C3.79 4.007 2.684 5.67 2.672 7.941c-.023 4.145-.006 8.29 0 12.43 0 .994.217 1.94.78 2.79 1.136 1.736 2.805 2.609 4.967 2.62 2.19.01 4.388 0 6.584 0z" fill="#fff"/><path d="M22.737 14.164c-.041 4.051-3.544 7.317-7.786 7.273-4.247-.044-7.703-3.343-7.674-7.328.03-4.007 3.533-7.295 7.745-7.256 4.317.038 7.691 3.3 7.715 7.311zm-7.762 4.758c2.806.017 5.09-2.122 5.09-4.769.006-2.63-2.25-4.758-5.06-4.775-2.76-.016-5.039 2.117-5.062 4.748-.024 2.62 2.238 4.78 5.032 4.796zM23.03 4.736c1.06-.028 1.944.792 1.98 1.84.029.976-.856 1.84-1.898 1.863-1.084.022-1.98-.787-2.01-1.813-.023-1.014.838-1.862 1.927-1.89z" fill="#fff"/></svg>