<?xml version="1.0" encoding="utf-8"?><svg width="20" height="20" fill="none" xmlns="http://www.w3.org/2000/svg" viewBox="0 0 20 20"><g clip-path="url(#cclip0_132_3)"><path d="M0 3.921c.035-.163.064-.319.1-.482.113-.44.318-.837.637-1.156C1.32 1.7 1.893 1.12 2.481.545 2.971.07 3.538-.164 4.204.12c.234.1.461.248.638.425.88.858 1.744 1.724 2.602 2.596.383.39.631.844.546 1.411-.064.426-.312.752-.603 1.05-.489.49-.978.979-1.467 1.461-.255.255-.255.32-.114.645.56 1.249 1.411 2.284 2.326 3.277.914.986 1.914 1.872 3.056 2.589.39.24.808.44 1.212.66.184.099.326.02.46-.114.511-.51 1.007-1.029 1.532-1.525.206-.199.44-.383.695-.497.524-.24 1.028-.127 1.482.2.113.084.22.184.326.283.83.822 1.659 1.638 2.474 2.475.198.206.383.44.496.695.256.546.156 1.1-.24 1.532a44.844 44.844 0 01-1.993 2.035c-.376.362-.858.546-1.375.632-.064.007-.128.028-.185.042h-.822c-.05-.014-.092-.028-.142-.035-.617-.128-1.255-.206-1.85-.398-1.78-.56-3.39-1.475-4.9-2.546-2.743-1.943-4.94-4.39-6.607-7.312C1.121 8.602.61 7.446.276 6.22.156 5.78.092 5.325 0 4.872v-.95z" fill="#fff"/></g><defs><clipPath id="cclip0_132_3"><path fill="#fff" d="M0 0h20v20H0z"/></clipPath></defs></svg>