<?xml version="1.0" encoding="utf-8"?><svg width="101" height="60" fill="none" xmlns="http://www.w3.org/2000/svg" viewBox="0 0 101 60"><path d="M98.523 15.66l2.447-13.566C101.174 1.004 100.3 0 99.193 0H19.351a1.84 1.84 0 00-1.574.89L1.232 29.11a1.765 1.765 0 000 1.78l16.545 28.192c.32.545.932.89 1.573.89h70.231c.873 0 1.63-.632 1.776-1.492l2.447-13.738c.204-1.09-.67-2.094-1.777-2.094H71.142a1.79 1.79 0 01-1.777-2.122l.291-1.549c.146-.86.903-1.463 1.777-1.463H89.64c.874 0 1.631-.63 1.806-1.491l2.068-11.673c.204-1.09-.67-2.094-1.806-2.094H74.783a1.815 1.815 0 01-1.806-2.093l.262-1.55c.146-.86.903-1.49 1.806-1.49h21.643c.932.028 1.69-.603 1.835-1.463zM23.341 49.646L12.359 30.89a1.765 1.765 0 010-1.778l10.982-18.757a1.84 1.84 0 011.573-.89h21.992c.641 0 1.253.345 1.573.89L59.461 29.11c.32.545.32 1.233 0 1.778L48.479 49.646a1.84 1.84 0 01-1.573.89H24.914c-.67 0-1.253-.345-1.573-.89z" fill="url(#dpaint0_linear_1_13)"/><defs><linearGradient id="dpaint0_linear_1_13" x1="10.235" y1="29.995" x2="211.408" y2="29.995" gradientUnits="userSpaceOnUse"><stop stop-color="#B8005F"/><stop offset="1" stop-color="#0FF"/></linearGradient></defs></svg>