<?xml version="1.0" encoding="utf-8"?><svg width="89" height="102" fill="none" xmlns="http://www.w3.org/2000/svg" viewBox="0 0 89 102"><path d="M85.047 78.84l.003-.001c2.146-1.24 3.45-3.574 3.45-6.11V29.27a7.154 7.154 0 00-3.459-6.115L47.97 1.433l-.002-.001a6.921 6.921 0 00-6.937 0s0 0 0 0L3.952 23.16 85.047 78.84zm0 0L47.97 100.567l-.002.001a6.918 6.918 0 01-6.936 0l-.002-.001L3.96 78.844l-.003-.002A7.154 7.154 0 01.5 72.73V29.27m84.547 49.57L.5 29.27m0 0c0-2.531 1.34-4.87 3.453-6.111L.5 29.27z" fill="url(#fpaint0_linear_11484_2)" stroke="#000"/><defs><linearGradient id="fpaint0_linear_11484_2" x1="96.668" y1="-73.651" x2="96.668" y2="-175.665" gradientUnits="userSpaceOnUse"><stop stop-color="#D4145A"/><stop offset="1" stop-color="#2E3192"/></linearGradient></defs></svg>