<svg width="89" height="102" viewBox="0 0 89 102" fill="none" xmlns="http://www.w3.org/2000/svg">
<path d="M85.0472 78.8399L85.0499 78.8383C87.1957 77.5989 88.5 75.2642 88.5 72.7284V29.2709C88.5 26.7447 87.1636 24.4425 85.0442 23.1576C85.0431 23.157 85.0421 23.1563 85.041 23.1557L47.9698 1.4322C47.9694 1.43195 47.969 1.4317 47.9685 1.43145C45.8164 0.189022 43.1836 0.189027 41.0314 1.43147C41.031 1.43171 41.0306 1.43196 41.0301 1.4322L3.95341 23.1591L85.0472 78.8399ZM85.0472 78.8399L47.9698 100.567C47.9694 100.567 47.9689 100.568 47.9684 100.568C45.8163 101.81 43.1837 101.81 41.0316 100.568C41.0311 100.568 41.0306 100.567 41.0301 100.567L3.95905 78.8436C3.95809 78.843 3.95713 78.8424 3.95617 78.8418C1.83653 77.557 0.5 75.2547 0.5 72.7284V29.2709M85.0472 78.8399L0.5 29.2709M0.5 29.2709C0.5 26.7395 1.84066 24.401 3.95286 23.1594L0.5 29.2709Z" fill="url(#paint0_linear_11484_2)" stroke="black"/>
<defs>
<linearGradient id="paint0_linear_11484_2" x1="233.668" y1="-114.651" x2="233.668" y2="-216.665" gradientUnits="userSpaceOnUse">
<stop stop-color="#D4145A"/>
<stop offset="1" stop-color="#2E3192"/>
</linearGradient>
</defs>
</svg>
